<svg xmlns="http://www.w3.org/2000/svg" width="720" height="430" font-family="Georgia, serif" font-size="12"><rect width="720" height="430" fill="white"/><text x="360.0" y="20" text-anchor="middle" font-size="14" font-weight="bold">Certificate-frontier density: exact DP count vs proved entropy bound (Thm C)</text><line x1="62" y1="384" x2="704" y2="384" stroke="black"/><line x1="62" y1="34" x2="62" y2="384" stroke="black"/><line x1="62.0" y1="384" x2="62.0" y2="388" stroke="black"/><text x="62.0" y="401" text-anchor="middle">0</text><line x1="220.03076923076924" y1="384" x2="220.03076923076924" y2="388" stroke="black"/><text x="220.03076923076924" y="401" text-anchor="middle">32</text><line x1="378.0615384615385" y1="384" x2="378.0615384615385" y2="388" stroke="black"/><text x="378.0615384615385" y="401" text-anchor="middle">64</text><line x1="536.0923076923077" y1="384" x2="536.0923076923077" y2="388" stroke="black"/><text x="536.0923076923077" y="401" text-anchor="middle">96</text><line x1="694.123076923077" y1="384" x2="694.123076923077" y2="388" stroke="black"/><text x="694.123076923077" y="401" text-anchor="middle">128</text><line x1="58" y1="34.0" x2="62" y2="34.0" stroke="black"/><text x="55" y="38.0" text-anchor="end">1</text><line x1="62" y1="34.0" x2="704" y2="34.0" stroke="#ddd" stroke-dasharray="2,3"/><line x1="58" y1="116.35294117647061" x2="62" y2="116.35294117647061" stroke="black"/><text x="55" y="120.35294117647061" text-anchor="end">1e-2</text><line x1="62" y1="116.35294117647061" x2="704" y2="116.35294117647061" stroke="#ddd" stroke-dasharray="2,3"/><line x1="58" y1="198.7058823529412" x2="62" y2="198.7058823529412" stroke="black"/><text x="55" y="202.7058823529412" text-anchor="end">1e-4</text><line x1="62" y1="198.7058823529412" x2="704" y2="198.7058823529412" stroke="#ddd" stroke-dasharray="2,3"/><line x1="58" y1="281.05882352941177" x2="62" y2="281.05882352941177" stroke="black"/><text x="55" y="285.05882352941177" text-anchor="end">1e-6</text><line x1="62" y1="281.05882352941177" x2="704" y2="281.05882352941177" stroke="#ddd" stroke-dasharray="2,3"/><line x1="58" y1="363.4117647058824" x2="62" y2="363.4117647058824" stroke="black"/><text x="55" y="367.4117647058824" text-anchor="end">1e-8</text><line x1="62" y1="363.4117647058824" x2="704" y2="363.4117647058824" stroke="#ddd" stroke-dasharray="2,3"/><text x="383.0" y="422" text-anchor="middle">depth d (shortcut steps)</text><text x="16" y="209.0" text-anchor="middle" transform="rotate(-90 16 209.0)">log10 density</text><polyline points="66.9,34.6 71.9,35.2 76.8,35.9 81.8,36.5 86.7,37.1 91.6,37.7 96.6,38.3 101.5,39.0 106.4,39.6 111.4,40.2 116.3,40.8 121.3,41.4 126.2,42.1 131.1,42.7 136.1,43.3 141.0,43.9 146.0,44.5 150.9,45.2 155.8,45.8 160.8,46.4 165.7,47.0 170.6,47.6 175.6,48.3 180.5,48.9 185.5,49.5 190.4,50.1 195.3,50.7 200.3,51.4 205.2,52.0 210.2,52.6 215.1,53.2 220.0,53.9 225.0,54.5 229.9,55.1 234.8,55.7 239.8,56.3 244.7,57.0 249.7,57.6 254.6,58.2 259.5,58.8 264.5,59.4 269.4,60.1 274.4,60.7 279.3,61.3 284.2,61.9 289.2,62.5 294.1,63.2 299.0,63.8 304.0,64.4 308.9,65.0 313.9,65.6 318.8,66.3 323.7,66.9 328.7,67.5 333.6,68.1 338.6,68.7 343.5,69.4 348.4,70.0 353.4,70.6 358.3,71.2 363.2,71.8 368.2,72.5 373.1,73.1 378.1,73.7 383.0,74.3 387.9,74.9 392.9,75.6 397.8,76.2 402.8,76.8 407.7,77.4 412.6,78.0 417.6,78.7 422.5,79.3 427.4,79.9 432.4,80.5 437.3,81.1 442.3,81.8 447.2,82.4 452.1,83.0 457.1,83.6 462.0,84.2 467.0,84.9 471.9,85.5 476.8,86.1 481.8,86.7 486.7,87.3 491.6,88.0 496.6,88.6 501.5,89.2 506.5,89.8 511.4,90.4 516.3,91.1 521.3,91.7 526.2,92.3 531.2,92.9 536.1,93.6 541.0,94.2 546.0,94.8 550.9,95.4 555.8,96.0 560.8,96.7 565.7,97.3 570.7,97.9 575.6,98.5 580.5,99.1 585.5,99.8 590.4,100.4 595.4,101.0 600.3,101.6 605.2,102.2 610.2,102.9 615.1,103.5 620.0,104.1 625.0,104.7 629.9,105.3 634.9,106.0 639.8,106.6 644.7,107.2 649.7,107.8 654.6,108.4 659.6,109.1 664.5,109.7 669.4,110.3 674.4,110.9 679.3,111.5 684.2,112.2 689.2,112.8 694.1,113.4" fill="none" stroke="#c0392b" stroke-width="1.6" stroke-dasharray="6,4"/><polyline points="66.9,46.4 71.9,58.8 76.8,58.8 81.8,63.9 86.7,71.2 91.6,71.2 96.6,74.9 101.5,80.5 106.4,80.5 111.4,83.6 116.3,83.6 121.3,85.8 126.2,89.5 131.1,89.5 136.1,91.8 141.0,95.4 146.0,95.4 150.9,97.6 155.8,97.6 160.8,99.2 165.7,102.1 170.6,102.1 175.6,103.8 180.5,106.8 185.5,106.8 190.4,108.6 195.3,111.5 200.3,111.5 205.2,113.3 210.2,113.3 215.1,114.6 220.0,117.0 225.0,117.0 229.9,118.6 234.8,121.1 239.8,121.1 244.7,122.6 249.7,122.6 254.6,123.9 259.5,126.0 264.5,126.0 269.4,127.4 274.4,129.7 279.3,129.7 284.2,131.1 289.2,133.5 294.1,133.5 299.0,134.9 304.0,134.9 308.9,136.1 313.9,138.1 318.8,138.1 323.7,139.4 328.7,141.5 333.6,141.5 338.6,142.9 343.5,142.9 348.4,144.0 353.4,145.8 358.3,145.8 363.2,147.1 368.2,149.1 373.1,149.1 378.1,150.4 383.0,152.5 387.9,152.5 392.9,153.8 397.8,153.8 402.8,154.8 407.7,156.6 412.6,156.6 417.6,157.8 422.5,159.8 427.4,159.8 432.4,161.0 437.3,161.0 442.3,162.0 447.2,163.7 452.1,163.7 457.1,164.8 462.0,166.7 467.0,166.7 471.9,167.9 476.8,167.9 481.8,168.9 486.7,170.5 491.6,170.5 496.6,171.6 501.5,173.4 506.5,173.4 511.4,174.6 516.3,176.5 521.3,176.5 526.2,177.7 531.2,177.7 536.1,178.6 541.0,180.3 546.0,180.3 550.9,181.3 555.8,183.1 560.8,183.1 565.7,184.3 570.7,184.3 575.6,185.2 580.5,186.8 585.5,186.8 590.4,187.8 595.4,189.6 600.3,189.6 605.2,190.7 610.2,192.5 615.1,192.5 620.0,193.6 625.0,193.6 629.9,194.6 634.9,196.2 639.8,196.2 644.7,197.2 649.7,198.9 654.6,198.9 659.6,200.0 664.5,200.0 669.4,200.9 674.4,202.4 679.3,202.4 684.2,203.5 689.2,205.1 694.1,205.1" fill="none" stroke="#2c3e50" stroke-width="1.2"/><circle cx="66.9" cy="46.4" r="2.6" fill="#2c3e50"/><circle cx="101.5" cy="80.5" r="2.6" fill="#2c3e50"/><circle cx="141.0" cy="95.4" r="2.6" fill="#2c3e50"/><circle cx="180.5" cy="106.8" r="2.6" fill="#2c3e50"/><circle cx="220.0" cy="117.0" r="2.6" fill="#2c3e50"/><circle cx="259.5" cy="126.0" r="2.6" fill="#2c3e50"/><circle cx="299.0" cy="134.9" r="2.6" fill="#2c3e50"/><circle cx="338.6" cy="142.9" r="2.6" fill="#2c3e50"/><circle cx="378.1" cy="150.4" r="2.6" fill="#2c3e50"/><circle cx="417.6" cy="157.8" r="2.6" fill="#2c3e50"/><circle cx="457.1" cy="164.8" r="2.6" fill="#2c3e50"/><circle cx="496.6" cy="171.6" r="2.6" fill="#2c3e50"/><circle cx="536.1" cy="178.6" r="2.6" fill="#2c3e50"/><circle cx="575.6" cy="185.2" r="2.6" fill="#2c3e50"/><circle cx="615.1" cy="192.5" r="2.6" fill="#2c3e50"/><circle cx="654.6" cy="198.9" r="2.6" fill="#2c3e50"/><circle cx="694.1" cy="205.1" r="2.6" fill="#2c3e50"/><text x="407.6923076923077" y="120.47058823529414" fill="#2c3e50">exact S(d)/2^d  (measured slope -0.108 at d=128)</text><text x="200.27692307692308" y="223.41176470588235" fill="#c0392b">bound 2^(-0.05004 d)  [Thm C]</text></svg>