<svg xmlns="http://www.w3.org/2000/svg" width="720" height="430" font-family="Georgia, serif" font-size="12"><rect width="720" height="430" fill="white"/><text x="360.0" y="20" text-anchor="middle" font-size="14" font-weight="bold">Total-stopping-time records vs stochastic-model extremes (measured 2026-07-01)</text><line x1="62" y1="384" x2="704" y2="384" stroke="black"/><line x1="62" y1="34" x2="62" y2="384" stroke="black"/><line x1="62.0" y1="384" x2="62.0" y2="388" stroke="black"/><text x="62.0" y="401" text-anchor="middle">0</text><line x1="213.05882352941177" y1="384" x2="213.05882352941177" y2="388" stroke="black"/><text x="213.05882352941177" y="401" text-anchor="middle">4</text><line x1="364.11764705882354" y1="384" x2="364.11764705882354" y2="388" stroke="black"/><text x="364.11764705882354" y="401" text-anchor="middle">8</text><line x1="515.1764705882354" y1="384" x2="515.1764705882354" y2="388" stroke="black"/><text x="515.1764705882354" y="401" text-anchor="middle">12</text><line x1="666.2352941176471" y1="384" x2="666.2352941176471" y2="388" stroke="black"/><text x="666.2352941176471" y="401" text-anchor="middle">16</text><line x1="58" y1="384.0" x2="62" y2="384.0" stroke="black"/><text x="55" y="388.0" text-anchor="end">0</text><line x1="62" y1="384.0" x2="704" y2="384.0" stroke="#ddd" stroke-dasharray="2,3"/><line x1="58" y1="286.77777777777777" x2="62" y2="286.77777777777777" stroke="black"/><text x="55" y="290.77777777777777" text-anchor="end">200</text><line x1="62" y1="286.77777777777777" x2="704" y2="286.77777777777777" stroke="#ddd" stroke-dasharray="2,3"/><line x1="58" y1="189.55555555555554" x2="62" y2="189.55555555555554" stroke="black"/><text x="55" y="193.55555555555554" text-anchor="end">400</text><line x1="62" y1="189.55555555555554" x2="704" y2="189.55555555555554" stroke="#ddd" stroke-dasharray="2,3"/><line x1="58" y1="92.33333333333331" x2="62" y2="92.33333333333331" stroke="black"/><text x="55" y="96.33333333333331" text-anchor="end">600</text><line x1="62" y1="92.33333333333331" x2="704" y2="92.33333333333331" stroke="#ddd" stroke-dasharray="2,3"/><text x="383.0" y="422" text-anchor="middle">ln n</text><text x="16" y="209.0" text-anchor="middle" transform="rotate(-90 16 209.0)">sigma_inf(n)  (shortcut steps)</text><polyline points="62.0,384.0 704.0,326.5" fill="none" stroke="#2980b9" stroke-width="1.6"/><polyline points="62.0,384.0 704.0,39.6" fill="none" stroke="#c0392b" stroke-width="1.6" stroke-dasharray="6,4"/><rect x="85.2" y="380.5" width="6" height="6" fill="#2c3e50"/><rect x="100.5" y="378.6" width="6" height="6" fill="#2c3e50"/><rect x="132.5" y="375.7" width="6" height="6" fill="#2c3e50"/><rect x="142.0" y="374.7" width="6" height="6" fill="#2c3e50"/><rect x="183.5" y="347.0" width="6" height="6" fill="#2c3e50"/><rect x="525.3" y="245.9" width="6" height="6" fill="#2c3e50"/><rect x="563.1" y="225.9" width="6" height="6" fill="#2c3e50"/><rect x="574.1" y="221.1" width="6" height="6" fill="#2c3e50"/><rect x="601.3" y="211.3" width="6" height="6" fill="#2c3e50"/><rect x="630.5" y="199.2" width="6" height="6" fill="#2c3e50"/><text x="582.1" y="236.1" font-size="10">837799</text><text x="609.3" y="226.3" font-size="10">1723519</text><text x="638.5" y="214.2" font-size="10">3732423</text><text x="413.2117647058824" y="325.6666666666667" fill="#2980b9">mean slope 2/ln(4/3) = 6.952</text><text x="145.08235294117648" y="72.88888888888891" fill="#c0392b">Lagarias-Weiss limsup slope 41.678</text><text x="364.11764705882354" y="155.52777777777777" fill="#2c3e50">records reach only ~24.7 ln n at N = 5e6:</text><text x="364.11764705882354" y="174.97222222222223" fill="#2c3e50">the extreme tail is computationally unreachable</text></svg>