<svg xmlns="http://www.w3.org/2000/svg" width="760" height="340" font-family="Georgia, serif" font-size="12"><rect width="760" height="340" fill="white"/><text x="380.0" y="20" text-anchor="middle" font-size="14" font-weight="bold">Repository composition by top-level directory (log10 bytes; labels show raw size)</text><text x="192" y="54" text-anchor="end">problems</text><rect x="200" y="40" width="465.5" height="20" fill="#2c3e50"/><text x="671.5" y="54" font-size="11">10,634,999 B</text><text x="192" y="82" text-anchor="end">rag</text><rect x="200" y="68" width="439.9" height="20" fill="#2c3e50"/><text x="645.9" y="82" font-size="11">4,361,280 B</text><text x="192" y="110" text-anchor="end">meta-analyses</text><rect x="200" y="96" width="408.2" height="20" fill="#2c3e50"/><text x="614.2" y="110" font-size="11">1,449,405 B</text><text x="192" y="138" text-anchor="end">docs</text><rect x="200" y="124" width="351.9" height="20" fill="#2c3e50"/><text x="557.9" y="138" font-size="11">204,802 B</text><text x="192" y="166" text-anchor="end">data</text><rect x="200" y="152" width="349.9" height="20" fill="#2c3e50"/><text x="555.9" y="166" font-size="11">191,280 B</text><text x="192" y="194" text-anchor="end">(root files)</text><rect x="200" y="180" width="321.9" height="20" fill="#2c3e50"/><text x="527.9" y="194" font-size="11">72,257 B</text><text x="192" y="222" text-anchor="end">scripts</text><rect x="200" y="208" width="299.4" height="20" fill="#2c3e50"/><text x="505.4" y="222" font-size="11">33,023 B</text><text x="192" y="250" text-anchor="end">.github</text><rect x="200" y="236" width="259.6" height="20" fill="#2c3e50"/><text x="465.6" y="250" font-size="11">8,277 B</text><text x="192" y="278" text-anchor="end">schema</text><rect x="200" y="264" width="245.5" height="20" fill="#2c3e50"/><text x="451.5" y="278" font-size="11">5,071 B</text><text x="192" y="306" text-anchor="end">tests</text><rect x="200" y="292" width="216.1" height="20" fill="#2c3e50"/><text x="422.1" y="306" font-size="11">1,828 B</text></svg>