<svg xmlns="http://www.w3.org/2000/svg" width="760" height="620" font-family="Georgia, serif" font-size="12"><rect width="760" height="620" fill="white"/><text x="380.0" y="20" text-anchor="middle" font-size="14" font-weight="bold">Audit scorecard — 25 dimensions, 0-10 (total 174/250 = 69.6%)</text><text x="252" y="47" text-anchor="end" font-size="10.5">1 Repo structure & modularity</text><rect x="260" y="36" width="352" height="14" fill="#27ae60"/><rect x="260" y="36" width="440" height="14" fill="none" stroke="#ccc" stroke-width="0.5"/><text x="706" y="47" font-size="10.5">8</text><text x="252" y="69" text-anchor="end" font-size="10.5">2 Naming & org consistency</text><rect x="260" y="58" width="264" height="14" fill="#e67e22"/><rect x="260" y="58" width="440" height="14" fill="none" stroke="#ccc" stroke-width="0.5"/><text x="706" y="69" font-size="10.5">6</text><text x="252" y="91" text-anchor="end" font-size="10.5">3 Documentation coverage</text><rect x="260" y="80" width="396" height="14" fill="#27ae60"/><rect x="260" y="80" width="440" height="14" fill="none" stroke="#ccc" stroke-width="0.5"/><text x="706" y="91" font-size="10.5">9</text><text x="252" y="113" text-anchor="end" font-size="10.5">4 Code health (parse/syntax)</text><rect x="260" y="102" width="396" height="14" fill="#27ae60"/><rect x="260" y="102" width="440" height="14" fill="none" stroke="#ccc" stroke-width="0.5"/><text x="706" y="113" font-size="10.5">9</text><text x="252" y="135" text-anchor="end" font-size="10.5">5 Code duplication</text><rect x="260" y="124" width="176" height="14" fill="#c0392b"/><rect x="260" y="124" width="440" height="14" fill="none" stroke="#ccc" stroke-width="0.5"/><text x="706" y="135" font-size="10.5">4</text><text x="252" y="157" text-anchor="end" font-size="10.5">6 Test coverage</text><rect x="260" y="146" width="132" height="14" fill="#c0392b"/><rect x="260" y="146" width="440" height="14" fill="none" stroke="#ccc" stroke-width="0.5"/><text x="706" y="157" font-size="10.5">3</text><text x="252" y="179" text-anchor="end" font-size="10.5">7 CI/CD pipelines</text><rect x="260" y="168" width="308" height="14" fill="#27ae60"/><rect x="260" y="168" width="440" height="14" fill="none" stroke="#ccc" stroke-width="0.5"/><text x="706" y="179" font-size="10.5">7</text><text x="252" y="201" text-anchor="end" font-size="10.5">8 Local reproducibility</text><rect x="260" y="190" width="264" height="14" fill="#e67e22"/><rect x="260" y="190" width="440" height="14" fill="none" stroke="#ccc" stroke-width="0.5"/><text x="706" y="201" font-size="10.5">6</text><text x="252" y="223" text-anchor="end" font-size="10.5">9 Data hygiene (results sprawl)</text><rect x="260" y="212" width="220" height="14" fill="#e67e22"/><rect x="260" y="212" width="440" height="14" fill="none" stroke="#ccc" stroke-width="0.5"/><text x="706" y="223" font-size="10.5">5</text><text x="252" y="245" text-anchor="end" font-size="10.5">10 Artifact provenance</text><rect x="260" y="234" width="308" height="14" fill="#27ae60"/><rect x="260" y="234" width="440" height="14" fill="none" stroke="#ccc" stroke-width="0.5"/><text x="706" y="245" font-size="10.5">7</text><text x="252" y="267" text-anchor="end" font-size="10.5">11 Staleness / synchronization</text><rect x="260" y="256" width="264" height="14" fill="#e67e22"/><rect x="260" y="256" width="440" height="14" fill="none" stroke="#ccc" stroke-width="0.5"/><text x="706" y="267" font-size="10.5">6</text><text x="252" y="289" text-anchor="end" font-size="10.5">12 Version-control discipline</text><rect x="260" y="278" width="176" height="14" fill="#c0392b"/><rect x="260" y="278" width="440" height="14" fill="none" stroke="#ccc" stroke-width="0.5"/><text x="706" y="289" font-size="10.5">4</text><text x="252" y="311" text-anchor="end" font-size="10.5">13 Kanban / status tooling</text><rect x="260" y="300" width="308" height="14" fill="#27ae60"/><rect x="260" y="300" width="440" height="14" fill="none" stroke="#ccc" stroke-width="0.5"/><text x="706" y="311" font-size="10.5">7</text><text x="252" y="333" text-anchor="end" font-size="10.5">14 Schema & validation gates</text><rect x="260" y="322" width="352" height="14" fill="#27ae60"/><rect x="260" y="322" width="440" height="14" fill="none" stroke="#ccc" stroke-width="0.5"/><text x="706" y="333" font-size="10.5">8</text><text x="252" y="355" text-anchor="end" font-size="10.5">15 RAG pipeline health</text><rect x="260" y="344" width="220" height="14" fill="#e67e22"/><rect x="260" y="344" width="440" height="14" fill="none" stroke="#ccc" stroke-width="0.5"/><text x="706" y="355" font-size="10.5">5</text><text x="252" y="377" text-anchor="end" font-size="10.5">16 Citation integrity</text><rect x="260" y="366" width="396" height="14" fill="#27ae60"/><rect x="260" y="366" width="440" height="14" fill="none" stroke="#ccc" stroke-width="0.5"/><text x="706" y="377" font-size="10.5">9</text><text x="252" y="399" text-anchor="end" font-size="10.5">17 Math verification depth</text><rect x="260" y="388" width="396" height="14" fill="#27ae60"/><rect x="260" y="388" width="440" height="14" fill="none" stroke="#ccc" stroke-width="0.5"/><text x="706" y="399" font-size="10.5">9</text><text x="252" y="421" text-anchor="end" font-size="10.5">18 Claim containment process</text><rect x="260" y="410" width="264" height="14" fill="#e67e22"/><rect x="260" y="410" width="440" height="14" fill="none" stroke="#ccc" stroke-width="0.5"/><text x="706" y="421" font-size="10.5">6</text><text x="252" y="443" text-anchor="end" font-size="10.5">19 External review integration</text><rect x="260" y="432" width="396" height="14" fill="#27ae60"/><rect x="260" y="432" width="440" height="14" fill="none" stroke="#ccc" stroke-width="0.5"/><text x="706" y="443" font-size="10.5">9</text><text x="252" y="465" text-anchor="end" font-size="10.5">20 Licensing & attribution</text><rect x="260" y="454" width="396" height="14" fill="#27ae60"/><rect x="260" y="454" width="440" height="14" fill="none" stroke="#ccc" stroke-width="0.5"/><text x="706" y="465" font-size="10.5">9</text><text x="252" y="487" text-anchor="end" font-size="10.5">21 Secrets / security hygiene</text><rect x="260" y="476" width="352" height="14" fill="#27ae60"/><rect x="260" y="476" width="440" height="14" fill="none" stroke="#ccc" stroke-width="0.5"/><text x="706" y="487" font-size="10.5">8</text><text x="252" y="509" text-anchor="end" font-size="10.5">22 Instrument efficiency</text><rect x="260" y="498" width="352" height="14" fill="#27ae60"/><rect x="260" y="498" width="440" height="14" fill="none" stroke="#ccc" stroke-width="0.5"/><text x="706" y="509" font-size="10.5">8</text><text x="252" y="531" text-anchor="end" font-size="10.5">23 Scalability</text><rect x="260" y="520" width="264" height="14" fill="#e67e22"/><rect x="260" y="520" width="440" height="14" fill="none" stroke="#ccc" stroke-width="0.5"/><text x="706" y="531" font-size="10.5">6</text><text x="252" y="553" text-anchor="end" font-size="10.5">24 PM maturity (PRD/process)</text><rect x="260" y="542" width="308" height="14" fill="#27ae60"/><rect x="260" y="542" width="440" height="14" fill="none" stroke="#ccc" stroke-width="0.5"/><text x="706" y="553" font-size="10.5">7</text><text x="252" y="575" text-anchor="end" font-size="10.5">25 Collatz-pursuit fitness</text><rect x="260" y="564" width="396" height="14" fill="#27ae60"/><rect x="260" y="564" width="440" height="14" fill="none" stroke="#ccc" stroke-width="0.5"/><text x="706" y="575" font-size="10.5">9</text></svg>